<?xml version="1.0" encoding="utf-8"?>
<!-- Generator: Adobe Illustrator 24.0.1, SVG Export Plug-In . SVG Version: 6.00 Build 0)  -->
<svg version="1.1" id="Layer_1" xmlns="http://www.w3.org/2000/svg" xmlns:xlink="http://www.w3.org/1999/xlink" x="0px" y="0px"
	 viewBox="0 0 48 48" style="enable-background:new 0 0 48 48;" xml:space="preserve">
<style type="text/css">
	.st0{fill:#3C9CAB;}
</style>
<g id="Layer_2_1_">
	<g id="Layer_1-2">
		<path class="st0" d="M16.1,36.9c-2.5,0.1-4.8-1-6.3-3c-1.4-2-2.1-4.4-2-6.8l-1-1.4c-0.7-1.3-1.3-2.7-1.9-4.1
			c-1-2.6-1.5-5.3-1.4-8.1c-0.1-3.2,0.9-6.4,2.7-9.1c1.5-2.3,4.1-3.7,6.9-3.8c2.9-0.1,5.6,1.5,7.1,4c1.7,2.6,2.6,5.7,2.5,8.8
			c0,1.9-0.3,3.8-0.8,5.6c-0.6,1.7-1.1,3.2-1.5,4.2l0.4,0.7c0.3,0.5,0.7,1.3,1.2,2.4c0.5,1.1,0.7,2.2,0.7,3.4
			c0.1,1.9-0.6,3.7-1.9,5.1C19.7,36.1,17.9,36.9,16.1,36.9z M9.7,24l7.7-1.6c0.5-1.4,1-2.9,1.5-4.5c0.5-1.5,0.7-3,0.7-4.5
			c0-2.3-0.6-4.6-1.7-6.6c-0.9-1.8-2.7-3-4.7-3c-1.9,0-3.7,1.1-4.6,2.7c-1.3,2.1-2,4.5-1.9,6.9c-0.1,2.4,0.3,4.8,1.2,7
			C8.4,21.6,9,22.8,9.7,24z M16.1,33.6c0.9,0,1.8-0.4,2.5-1.1c0.7-0.8,1-1.8,1-2.8c0-0.8-0.2-1.5-0.5-2.2c-0.3-0.7-0.7-1.4-1.1-2
			l-6.9,1.4c0,1.6,0.4,3.1,1.2,4.5C13,32.9,14.5,33.7,16.1,33.6z M33.7,47.5c-1.8,0.1-3.5-0.6-4.8-1.9c-1.3-1.4-1.9-3.2-1.9-5.1
			c0-1.2,0.3-2.3,0.8-3.4c0.5-1.1,0.9-1.9,1.2-2.4l0.4-0.7c-0.4-1.1-0.9-2.5-1.5-4.2c-0.6-1.8-0.9-3.7-0.9-5.6
			c0-3.1,0.9-6.2,2.5-8.8c1.4-2.5,4.2-4.1,7.1-4c2.8,0,5.4,1.4,6.9,3.7c1.9,2.7,2.8,5.9,2.7,9.2c0,2.7-0.5,5.4-1.4,7.9
			c-0.5,1.4-1.2,2.8-1.9,4.1l-1,1.5c0.1,2.4-0.7,4.8-2.1,6.8C38.5,46.5,36.2,47.6,33.7,47.5z M40.1,34.5c0.7-1.2,1.3-2.4,1.7-3.6
			c0.9-2.2,1.3-4.6,1.2-6.9c0.1-2.4-0.6-4.8-1.9-6.9c-0.9-1.6-2.7-2.6-4.5-2.6c-2,0-3.9,1.2-4.7,3c-1.1,2-1.7,4.3-1.7,6.6
			c0,1.5,0.3,3.1,0.8,4.6c0.5,1.6,1,3.1,1.5,4.5L40.1,34.5z M33.7,44.2c1.6,0.1,3.2-0.8,3.9-2.2c0.8-1.4,1.2-3,1.2-4.5l-7-1.3
			c-0.4,0.7-0.7,1.3-1,2c-0.3,0.7-0.5,1.5-0.5,2.2c0,1,0.3,2,1,2.8C31.9,44,32.8,44.4,33.7,44.2L33.7,44.2z"/>
	</g>
</g>
</svg>
