<?xml version="1.0" encoding="utf-8"?>
<!-- Generator: Adobe Illustrator 24.0.1, SVG Export Plug-In . SVG Version: 6.00 Build 0)  -->
<svg version="1.1" id="Layer_1" xmlns="http://www.w3.org/2000/svg" xmlns:xlink="http://www.w3.org/1999/xlink" x="0px" y="0px"
	 viewBox="0 0 48 48" style="enable-background:new 0 0 48 48;" xml:space="preserve">
<style type="text/css">
	.st0{fill:#3C9CAB;}
</style>
<g id="Layer_2_1_">
	<g id="Layer_1-2">
		<path class="st0" d="M14.3,46.3V25.8c-2-0.4-3.7-1.4-5-2.9c-1.3-1.5-2-3.5-2-5.5V1.7h3.4v15.7h3.6V1.7h3.3v15.7h3.6V1.7h3.4v15.7
			c0.1,2-0.6,4-2,5.5c-1.3,1.5-3,2.5-4.9,2.9v20.5H14.3z M37.4,46.3V28.5H31v-17c-0.1-2.6,0.9-5.2,2.7-7.1c1.9-1.8,4.4-2.8,7.1-2.7
			v44.6H37.4z"/>
	</g>
</g>
</svg>
