<svg xmlns="http://www.w3.org/2000/svg" viewBox="0 0 29 40"><defs><style>.cls-1{fill:#747c8a;}</style></defs><title>tip</title><g id="Layer_2" data-name="Layer 2"><g id="Layer_1-2" data-name="Layer 1"><path class="cls-1" d="M14.5,40a4.34,4.34,0,0,1-2.37-.65,2.91,2.91,0,0,1-1.33-1.8h-.7a2.88,2.88,0,0,1-2.1-.9,2.88,2.88,0,0,1-.9-2.1V27.4a15.81,15.81,0,0,1-5.2-5.5A14.69,14.69,0,0,1,0,14.5,14,14,0,0,1,4.23,4.23,14,14,0,0,1,14.5,0,14,14,0,0,1,24.78,4.23,14,14,0,0,1,29,14.5a14.69,14.69,0,0,1-1.9,7.4,15.81,15.81,0,0,1-5.2,5.5v7.15a3.08,3.08,0,0,1-3,3h-.7a2.93,2.93,0,0,1-1.32,1.8A4.4,4.4,0,0,1,14.5,40Zm-4.4-5.45h8.8v-2.2H10.1Zm0-4.2h8.8v-2H10.1Zm-.45-5h3.7V18.5l-4.6-4.6,1.55-1.55,4.2,4.2,4.2-4.2,1.55,1.55-4.6,4.6v6.85h3.7A11.12,11.12,0,0,0,24.18,21,12.17,12.17,0,0,0,26,14.5,11.36,11.36,0,0,0,14.5,3,11.09,11.09,0,0,0,6.33,6.33,11.09,11.09,0,0,0,3,14.5,12.09,12.09,0,0,0,4.83,21,11,11,0,0,0,9.65,25.35Z"/></g></g></svg>