<?xml version="1.0" encoding="utf-8"?>
<!-- Generator: Adobe Illustrator 24.0.1, SVG Export Plug-In . SVG Version: 6.00 Build 0)  -->
<svg version="1.1" id="Layer_1" xmlns="http://www.w3.org/2000/svg" xmlns:xlink="http://www.w3.org/1999/xlink" x="0px" y="0px"
	 viewBox="0 0 40 43" style="enable-background:new 0 0 40 43;" xml:space="preserve">
<style type="text/css">
	.st0{fill:#3C9CAB;}
</style>
<path class="st0" d="M2.2,43l5.7-29.3L3,15.9v6.7H0v-8.7l9.4-4.1c0.9-0.4,1.9-0.5,2.9-0.3c1.1,0.2,1.8,0.7,2.4,1.6l2.1,3.3
	c0.9,1.5,2.1,2.7,3.6,3.7c1.5,1,3.1,1.5,5,1.5v3c-2,0-3.9-0.5-5.8-1.4c-1.8-0.9-3.4-2.4-4.8-4.5l-1.9,7.6l4.5,4.1V43h-3V31.1l-5.2-5
	L5.3,43H2.2z M14.7,7.3c-1,0-1.9-0.4-2.6-1.1s-1.1-1.6-1.1-2.6s0.4-1.9,1.1-2.6S13.7,0,14.7,0s1.9,0.4,2.6,1.1s1.1,1.6,1.1,2.6
	S18,5.5,17.3,6.2S15.7,7.3,14.7,7.3z M35.2,43l-1.8-1.8l1.8-1.8H24V37h11.3l-1.8-1.8l1.8-1.8l4.8,4.8L35.2,43z M28.7,34.2L24,29.4
	l4.8-4.8l1.8,1.8l-1.8,1.8H40v2.5H28.7l1.8,1.8L28.7,34.2z"/>
</svg>
